<?xml version="1.0" encoding="UTF-8" standalone="no"?>
<!-- Created with Inkscape (http://www.inkscape.org/) -->

<svg
   width="1024"
   height="1024"
   viewBox="0 0 270.93333 270.93333"
   version="1.1"
   id="svg1"
   xml:space="preserve"
   inkscape:version="1.3.2 (091e20e, 2023-11-25, custom)"
   sodipodi:docname="icon.svg"
   inkscape:export-filename="icon.png"
   inkscape:export-xdpi="96"
   inkscape:export-ydpi="96"
   xmlns:inkscape="http://www.inkscape.org/namespaces/inkscape"
   xmlns:sodipodi="http://sodipodi.sourceforge.net/DTD/sodipodi-0.dtd"
   xmlns="http://www.w3.org/2000/svg"
   xmlns:svg="http://www.w3.org/2000/svg"><sodipodi:namedview
     id="namedview1"
     pagecolor="#505050"
     bordercolor="#ffffff"
     borderopacity="1"
     inkscape:showpageshadow="0"
     inkscape:pageopacity="0"
     inkscape:pagecheckerboard="1"
     inkscape:deskcolor="#505050"
     inkscape:document-units="mm"
     inkscape:zoom="0.46551692"
     inkscape:cx="835.63021"
     inkscape:cy="628.33377"
     inkscape:window-width="1920"
     inkscape:window-height="974"
     inkscape:window-x="-11"
     inkscape:window-y="-11"
     inkscape:window-maximized="1"
     inkscape:current-layer="layer1" /><defs
     id="defs1" /><g
     inkscape:label="Layer 1"
     inkscape:groupmode="layer"
     id="layer1"><rect
       style="fill:#0a0a0f;fill-opacity:1;stroke-width:0.264583"
       id="rect1"
       width="272"
       height="271.68063"
       x="-0.8037889"
       y="0" /><path
       d="m 139.20653,73.602223 a 6.5208803,6.5208803 0 0 0 -7.47973,0 140.75284,140.75284 0 0 0 -22.92056,21.172048 C 93.537372,112.33327 85.466666,130.91503 85.466666,148.51015 a 50.000001,50.000001 0 0 0 100.000004,0 c 0,-42.04262 -44.37124,-73.585851 -46.26014,-74.907927 z M 135.46667,185.46666 A 36.99852,36.99852 0 0 1 98.510144,148.51015 c 0,-18.10357 10.845946,-34.43817 19.944426,-44.9532 a 135.33811,135.33811 0 0 1 17.0121,-16.397488 135.32781,135.32781 0 0 1 17.01209,16.397488 c 9.09848,10.51503 19.94443,26.84963 19.94443,44.9532 a 36.99852,36.99852 0 0 1 -36.95652,36.95651 z m 25.44051,-31.16508 a 26.194787,26.194787 0 0 1 -19.64907,19.64908 6.5218489,6.5218489 0 1 1 -2.8867,-12.72026 13.084554,13.084554 0 0 0 9.81551,-9.81551 6.5218487,6.5218487 0 1 1 12.72026,2.88669 z"
       id="path1"
       style="fill:#faf9f6;fill-opacity:1;stroke-width:0.543478" /></g></svg>
