<?xml version="1.0" encoding="UTF-8" standalone="no"?>
<!-- Created with Inkscape (http://www.inkscape.org/) -->

<svg
   width="2732"
   height="2732"
   viewBox="0 0 2732 2732"
   version="1.1"
   id="svg1"
   xml:space="preserve"
   inkscape:version="1.3.2 (091e20e, 2023-11-25, custom)"
   sodipodi:docname="splash.svg"
   inkscape:export-filename="splash.png"
   inkscape:export-xdpi="96"
   inkscape:export-ydpi="96"
   xmlns:inkscape="http://www.inkscape.org/namespaces/inkscape"
   xmlns:sodipodi="http://sodipodi.sourceforge.net/DTD/sodipodi-0.dtd"
   xmlns="http://www.w3.org/2000/svg"
   xmlns:svg="http://www.w3.org/2000/svg"><sodipodi:namedview
     id="namedview1"
     pagecolor="#505050"
     bordercolor="#ffffff"
     borderopacity="1"
     inkscape:showpageshadow="0"
     inkscape:pageopacity="0"
     inkscape:pagecheckerboard="1"
     inkscape:deskcolor="#505050"
     inkscape:document-units="mm"
     inkscape:zoom="0.16458509"
     inkscape:cx="1093.6592"
     inkscape:cy="1701.2477"
     inkscape:window-width="1920"
     inkscape:window-height="974"
     inkscape:window-x="-11"
     inkscape:window-y="-11"
     inkscape:window-maximized="1"
     inkscape:current-layer="layer1" /><defs
     id="defs1" /><g
     inkscape:label="Layer 1"
     inkscape:groupmode="layer"
     id="layer1"><rect
       style="fill:#0a0a0f;fill-opacity:1"
       id="rect1"
       width="2758.2236"
       height="2741.0391"
       x="-17.185198"
       y="-8.5925989" /><path
       d="m 1387.2023,1015.2725 c -12.73,-8.9125 -29.6747,-8.9125 -42.4047,0 -22.0769,16.2558 -43.2844,33.6261 -63.5424,52.0368 -23.4469,21.3089 -45.6219,44.0116 -66.401,67.9937 -86.5635,99.5471 -132.3188,204.8925 -132.3188,304.6444 0,156.5533 126.9114,283.4645 283.4646,283.4645 156.5532,0 283.4646,-126.9112 283.4646,-283.4645 0,-238.352 -251.5535,-417.1797 -262.2623,-424.6749 z M 1366,1649.4646 c -115.6588,-0.1312 -209.386,-93.8584 -209.5173,-209.5172 0,-102.6344 61.4888,-195.24 113.0707,-254.8528 29.3772,-33.7398 61.6491,-64.8457 96.4466,-92.9621 34.7977,28.1162 67.0695,59.2221 96.4465,92.9621 51.5819,59.6128 113.0708,152.2184 113.0708,254.8528 -0.1313,115.6588 -93.8585,209.386 -209.5173,209.5172 z m 144.2296,-176.6839 c -12.7541,55.3905 -56.0058,98.6422 -111.3963,111.3963 -19.9267,4.5499 -39.7646,-7.9311 -44.288,-27.8638 -4.5235,-19.9328 7.9838,-39.754 27.9225,-44.251 27.6704,-6.3702 49.2768,-27.9766 55.647,-55.647 4.4973,-19.9383 24.3185,-32.4452 44.2509,-27.9218 19.9323,4.5234 32.4133,24.3607 27.8639,44.2873 z"
       id="path1"
       style="fill:#faf9f6;fill-opacity:1;stroke-width:3.08113"
       sodipodi:nodetypes="ccscsssccccccccccsccsc" /></g></svg>
